<svg xmlns="http://www.w3.org/2000/svg"><symbol id="wood" viewBox="0 0 24 24"><path fill="#9c6339" d="M4 4h6v16H4zM11 2h6v18h-6zM18 7h4v14h-4z"/><path fill="#d0a267" d="M4 4h6v3H4zM11 2h6v3h-6zM18 7h4v3h-4z"/><path fill="#69432e" d="M6 9h2v8H6zM13 7h2v10h-2z"/></symbol><symbol id="stone" viewBox="0 0 24 24"><path fill="#89949b" d="M6 5h10v2h3v4h2v9H3V9h3z"/><path fill="#bcc4bf" d="M6 5h10v3H8v4H5v-2h1z"/><path fill="#586f79" d="M12 14h9v6H9v-3h3z"/></symbol><symbol id="seed" viewBox="0 0 24 24"><path fill="#b99762" d="M6 8h12v3h2v10H4V11h2z"/><path fill="#d9bc81" d="M7 3h10v5H7z"/><path fill="#659247" d="M11 11h2v8h-2zM7 11h4v3H7zM13 13h4v3h-4z"/></symbol><symbol id="wheat" viewBox="0 0 24 24"><path fill="#9b7943" d="M11 5h2v17h-2z"/><path fill="#ddbb56" d="M9 2h6v4H9zM5 5h5v4H5zM14 5h5v4h-5zM6 11h4v4H6zM14 11h4v4h-4z"/><path fill="#6a954d" d="M4 17h6v3H4zM14 17h6v3h-6z"/></symbol><symbol id="ore" viewBox="0 0 24 24"><path fill="#528d9b" d="M8 2h8l6 7-10 13L2 9z"/><path fill="#95d9de" d="M8 2h8l-4 9L2 9z"/><path fill="#c7f0e3" d="M8 2h4v6H6z"/></symbol><symbol id="herb" viewBox="0 0 24 24"><path fill="#4d7e53" d="M11 8h2v14h-2z"/><path fill="#7ea763" d="M3 5h6l3 7H6zM15 2h6l-1 8-7 4zM3 15h6l3 4H5z"/><path fill="#b1c486" d="M5 6h3v2H5zM17 4h3v3h-3z"/></symbol><symbol id="fish" viewBox="0 0 24 24"><path fill="#6a9db5" d="M2 5l5 4h3V6h9v3h3v6h-3v3h-9v-3H7l-5 4z"/><path fill="#a3cfcd" d="M10 6h9v3h3v3H10z"/><path fill="#344d60" d="M18 10h2v2h-2z"/></symbol><symbol id="lantern" viewBox="0 0 24 24"><path fill="#9a7550" d="M8 2h8v2h2v4h-2V4H8v4H6V4h2zM4 8h16v3H4zM5 19h14v3H5z"/><path fill="#e3b665" d="M6 11h12v8H6z"/><path fill="#fff0ab" d="M10 12h4v6h-4z"/></symbol><symbol id="tea" viewBox="0 0 24 24"><path fill="#a1bba0" d="M4 10h13v9H6v-2H4zM17 11h4v6h-4v-2h2v-2h-2z"/><path fill="#d5dec0" d="M3 20h18v2H3zM8 2h2v5H8zM12 4h2v4h-2z"/></symbol><symbol id="firework" viewBox="0 0 24 24"><path fill="#b0747d" d="M9 7h7v13H9z"/><path fill="#e1b278" d="M8 7l4-5 5 5zM12 20h2v4h-2z"/><path fill="#f0d299" d="M2 3h3v3H2zM19 2h2v5h-2zM4 12h3v2H4z"/></symbol><symbol id="meal" viewBox="0 0 24 24"><path fill="#c2d0c2" d="M2 12h20v7h-3v3H5v-3H2z"/><path fill="#7d986a" d="M4 7h16v5H4z"/><path fill="#eac38a" d="M5 4h6v6H5zM14 6h6v4h-6z"/><path fill="#dc9275" d="M12 8h4v4h-4z"/></symbol><symbol id="bouquet" viewBox="0 0 24 24"><path fill="#749d68" d="M5 8h4v8h3V5h3v10h3V9h3v9H6z"/><path fill="#dd95b5" d="M2 3h9v5H2zM13 1h8v7h-8zM15 8h7v6h-7z"/><path fill="#f4e1ac" d="M4 15h15l-4 8H9z"/><path fill="#c69092" d="M8 18h10v3H8z"/></symbol><symbol id="outfit" viewBox="0 0 24 24"><path fill="#be8fab" d="M8 3h8l7 5-4 6-3-2v10H8V12l-3 2-4-6z"/><path fill="#e7c8d1" d="M8 3h8v4h-3v3h-2V7H8z"/><path fill="#94718b" d="M8 18h8v4H8z"/><path fill="#f4dd9d" d="M11 12h2v3h-2z"/></symbol><symbol id="remedy" viewBox="0 0 24 24"><path fill="#9cb3a0" d="M8 3h8v5h3v14H5V8h3z"/><path fill="#62846c" d="M8 2h8v4H8z"/><path fill="#f0e4c9" d="M7 10h10v9H7z"/><path fill="#ac7779" d="M11 11h2v6h-2zM9 13h6v2H9z"/></symbol><symbol id="pottery" viewBox="0 0 24 24"><path fill="#b37d5d" d="M8 3h8v5h-2v2h4v3h3v7h-3v3H6v-3H3v-7h3v-3h4V8H8z"/><path fill="#dda77d" d="M6 13h4v7H6zM8 3h8v2H8z"/><path fill="#754e3a" d="M10 5h4v3h-4zM11 20h7v3h-7z"/></symbol><symbol id="rod" viewBox="0 0 24 24"><path fill="#9d714b" d="M3 22h3L17 2h-3z"/><path fill="#d9b783" d="M4 18h4v3H4z"/><path fill="#a6c3c4" d="M16 2h6v2h-6zM21 4h1v12h-1zM18 16h4v3h-4z"/><path fill="#6b838b" d="M6 13h6v5H6z"/></symbol><symbol id="bread" viewBox="0 0 24 24"><path fill="#c09055" d="M4 7h2V4h12v3h2v3h2v10H2V10h2z"/><path fill="#e8c488" d="M5 8h14v3h2v4H3v-4h2z"/><path fill="#9c6b43" d="M7 7h2v5H7zM11 6h2v5h-2zM15 7h2v5h-2z"/></symbol><symbol id="painting" viewBox="0 0 24 24"><path fill="#96744d" d="M2 3h20v19H2z"/><path fill="#dcdebe" d="M5 6h14v13H5z"/><path fill="#a9c6c8" d="M5 6h14v7H5z"/><path fill="#789972" d="M5 17l4-7 5 6 5-4v7H5z"/><path fill="#e6c48b" d="M14 7h3v3h-3z"/></symbol><symbol id="tomato" viewBox="0 0 24 24"><path d="M4 12C4 4 20 4 20 12C20 22 4 22 4 12" fill="#d66b54" stroke="#87513b"/><path d="m12 9-5-4 5 1 2-4 1 5 4-1-5 4" fill="#7a9e63"/></symbol><symbol id="pumpkin" viewBox="0 0 24 24"><ellipse cx="12" cy="14" rx="10" ry="8" fill="#dba052" stroke="#8c653e"/><ellipse cx="12" cy="14" rx="4" ry="8" fill="#e4b062" stroke="#aa7744"/><path d="m11 6 1-4 3-1" fill="none" stroke="#68814f" stroke-width="3"/></symbol><symbol id="book" viewBox="0 0 24 24"><path d="M3 3h16v18H3z" fill="#8d7a9d" stroke="#695a70"/><path d="M6 4v15h13v2H5" fill="#f1debd" stroke="#bfa98a"/><path d="M9 8h7M9 11h6" stroke="#ddc894"/></symbol><symbol id="letter" viewBox="0 0 24 24"><rect x="2" y="5" width="20" height="14" fill="#f1debc" stroke="#a78b69"/><path d="m2 5 10 9L22 5M2 19l7-7m13 7-7-7" stroke="#b79976" fill="none"/></symbol><symbol id="wonder" viewBox="0 0 24 24"><path d="M7 18h10v3H7zM9 4h6v5l3 3-2 5H8l-2-5 3-3z" fill="#ae929b" stroke="#7d6771"/><path d="m12 7 1.2 2.3 2.6.4-1.9 1.8.4 2.6-2.3-1.2-2.3 1.2.4-2.6-1.9-1.8 2.6-.4z" fill="#e7c58b"/></symbol></svg>