<svg xmlns="http://www.w3.org/2000/svg" viewBox="0 0 64 64"><title>lan origami HUD artwork</title><g stroke="#596456" stroke-width="1.4" stroke-linejoin="miter"><path d="M8 52 32 58 56 52 32 47z" fill="#d4d8c7" opacity=".3" stroke="none"/><path d="M13 17 26 19 17 30z" fill="#fff8ea" opacity=".18" stroke="none"/><path d="M6 43h24l-5 10H12z" fill="#b2997e"/><path d="M10 40 22 19v21z" fill="#fff8e7"/><path d="M23 19v24" fill="none"/><path d="M34 43h24l-6 10H40z" fill="#81ab94"/><path d="M39 40 50 19v21z" fill="#c6d9b5"/><path d="M51 19v24" fill="none"/><path d="m27 14 4-4 4 4-4 4z" fill="#ceae6d"/><path d="M20 12h5m12 0h5" fill="none"/><rect x="6" y="55" width="22" height="3" fill="#80abb7"/><rect x="36" y="55" width="22" height="3" fill="#80abb7"/></g></svg>