<svg xmlns="http://www.w3.org/2000/svg" viewBox="0 0 64 64"><title>business origami HUD artwork</title><g stroke="#596456" stroke-width="1.4" stroke-linejoin="miter"><path d="M8 52 32 58 56 52 32 47z" fill="#d4d8c7" opacity=".3" stroke="none"/><path d="M13 17 26 19 17 30z" fill="#fff8ea" opacity=".18" stroke="none"/><rect x="9" y="27" width="46" height="27" fill="#81ab94"/><path d="M13 20h38l4 7H9z" fill="#557f74"/><rect x="18" y="12" width="28" height="14" fill="#b2997e"/><rect x="22" y="15" width="20" height="8" fill="#ceae6d"/><rect x="15" y="33" width="16" height="9" fill="#fff8e7"/><rect x="36" y="33" width="5" height="5" fill="#dbc2a0"/><rect x="44" y="33" width="5" height="5" fill="#dbc2a0"/><rect x="36" y="42" width="5" height="5" fill="#dbc2a0"/><rect x="44" y="42" width="5" height="5" fill="#dbc2a0"/><rect x="13" y="49" width="19" height="5" fill="#b2997e"/><rect x="8" y="52" width="17" height="6" fill="#ceae6d"/><rect x="9" y="49" width="15" height="3" fill="#f1dfba"/></g></svg>